<svg id="Calque_1" data-name="Calque 1" xmlns="http://www.w3.org/2000/svg" viewBox="0 0 514.18 517.56"><defs><style>.cls-1{fill:#7ac15e;}.cls-2{fill:#00c8ce;}.cls-3{fill:#963;}.cls-4{fill:#ff8339;}.cls-5{fill:#ff5050;}.cls-6{fill:#efc92e;}.cls-7{fill:#fbfbfb;}</style></defs><g id="original"><path class="cls-1" d="M285.82,473.92C281.1,372,335.75,272.9,425.71,228.76,469,341.84,393,458.37,285.82,473.92Z"/><path class="cls-2" d="M85.35,228.55c92.28,47.2,144.06,145,139.53,245.4C114,457.28,42.42,337.42,85.35,228.55Z"/><path class="cls-3" d="M83.25,62.38c124.6,60.1,85.66,58.06,226,55.71,41.31-12.28,78.48-40.23,118.8-54.87L255.38,228.1,82.8,63.31Z"/><path class="cls-4" d="M335.34,180.08c41.64-.25,41.85,63,.45,63.27S294,180.1,335.34,180.08Zm-3.57,52.42c18.56-.24,18.11-27.51-.06-27.75C313.9,205.2,313.69,232.43,331.77,232.5Z"/><path class="cls-5" d="M174.39,180.12c41.6.16,40.26,63.84-.57,63.25C132.15,242.86,132.67,179.63,174.39,180.12Zm3.32,52.42c18,.07,18.21-27.36.28-27.78C159.8,204.68,159.28,232.54,177.71,232.54Z"/><path class="cls-6" d="M255.41,232.6l29.84,21.33-29.83,45.72L225.53,254Z"/><path class="cls-7" d="M281.11,44.37a.76.76,0,0,0,0-1.52.76.76,0,0,0,0,1.52Z"/></g></svg>